<svg width="196" height="263" viewBox="0 0 196 263" fill="none" xmlns="http://www.w3.org/2000/svg">
<path d="M193.703 24.9065C190.927 27.1636 187.692 28.7834 184.223 29.6519C180.755 30.5205 177.139 30.6166 173.63 29.9334C171.293 29.4823 168.848 29.4393 166.467 29.203C167.73 31.0093 169.342 32.5433 171.207 33.7142C175.623 36.4781 178.78 40.867 179.999 45.9378C180.077 47.2055 179.886 48.4754 179.439 49.664C178.991 50.8525 178.298 51.9327 177.404 52.8337C175.646 54.5738 173.737 52.2322 172.558 50.6854C168.676 45.766 163.98 41.1257 161.428 35.5403C158.125 28.1503 151.928 24.5842 146.116 20.1803C153.579 30.3018 157.696 42.5077 157.889 55.0893C157.889 58.0109 159.305 58.7843 161.792 59.0636C167.689 59.7698 173.07 62.779 176.764 67.4373C180.459 72.0955 182.169 78.0262 181.522 83.9402C181.393 85.2292 180.557 87.1411 179.613 87.4204C178.916 87.4572 178.218 87.3482 177.564 87.1005C176.911 86.8527 176.316 86.4715 175.818 85.9811C172.922 83.5106 170.22 80.8038 167.454 78.183L166.896 77.7748L167.24 78.3978C167.378 79.387 167.593 80.3638 167.883 81.3194C169.926 87.5034 170.105 94.1534 168.398 100.439C167.839 101.785 167.048 103.021 166.06 104.091C165.095 103.36 163.787 102.866 163.186 101.943C158.885 95.7651 156.06 88.6794 154.93 81.2335C153.695 85.3462 152.154 89.3603 150.319 93.2421C147.184 98.8156 145.844 105.223 146.481 111.588C146.421 115.731 146.149 119.868 145.666 123.984C145.666 124.993 146.395 126.755 147.124 126.97C161.299 131.094 166.939 143.919 175.003 154.274C176.74 156.422 175.41 158.57 172.472 158.463C170.011 158.421 167.584 157.888 165.331 156.895C156.741 152.625 149.563 145.965 144.658 137.711C143.564 142.996 142.921 147.894 141.527 152.555C139.64 158.807 136.83 164.65 131.062 168.409C128.381 170.149 126.108 169.698 125.55 167.056C124.756 163.84 124.445 160.524 124.628 157.217C125.06 152.561 126.421 148.039 128.631 143.921C130.842 139.802 133.856 136.171 137.495 133.242C139.185 131.922 140.501 130.182 141.312 128.194C143.321 121.65 143.956 114.76 143.178 107.958C138.675 113.35 134.6 118.398 130.311 123.167C122.431 131.765 113.309 139.129 103.247 145.015C102.06 145.59 101.077 146.516 100.433 147.669C99.7885 148.822 99.5133 150.145 99.6446 151.46C99.8376 155.283 99.6446 159.129 99.7733 162.953C100.031 172.255 100.974 181.277 109.852 186.949C110.124 187.146 110.363 187.385 110.56 187.658C115.16 192.76 117.679 199.408 117.616 206.283C117.616 209.29 115.686 210.386 113.005 209.119C112.163 208.597 111.385 207.977 110.689 207.271C104.727 202.008 99.516 196.208 97.35 188.775C94.9399 192.309 92.3112 195.688 89.4797 198.893C88.2573 200.139 85.5981 199.946 83.5823 200.397C82.9453 198.649 82.6328 196.8 82.6601 194.94C84.3757 187.249 87.8713 180.676 95.2699 176.809C95.8471 176.407 96.3224 175.875 96.6575 175.255C96.9927 174.636 97.1784 173.947 97.1999 173.243C97.0283 165.917 96.5994 158.613 96.1491 151.309C96.1491 150.944 94.6265 150.214 94.4335 150.364C89.6512 154.446 84.1827 158.012 80.4298 162.888C73.5031 171.954 74.318 182.394 77.6634 192.77C82.4457 207.615 97.9505 224.027 116.458 222.029C118.526 221.881 120.508 221.135 122.162 219.881C125.265 217.413 128.749 215.469 132.477 214.124C138.978 212.295 145.571 210.81 152.228 209.677C153.686 209.376 156.131 209.419 156.689 210.257C157.086 211.035 157.321 211.885 157.38 212.757C157.439 213.628 157.32 214.503 157.032 215.327C156.04 217.891 154.495 220.204 152.509 222.102C150.522 224 148.141 225.434 145.537 226.304C139.918 228.582 134.171 227.83 128.381 227.228H128.102H128.381L133.592 230.128C137.036 231.978 139.995 234.615 142.231 237.825C144.466 241.035 145.915 244.727 146.459 248.603C147.317 254.296 144.572 256.187 139.49 253.652C135.708 251.871 132.115 249.712 128.767 247.207C122.334 242.116 117.23 236.036 118.259 226.97C118.516 224.822 117.165 224.994 115.814 225.016C101.382 225.273 90.4661 218.7 81.9095 207.529C80.3655 205.531 78.8644 203.49 77.3632 201.471C77.363 202.233 77.464 202.991 77.6634 203.726C81.8452 214.468 85.5981 225.574 94.6265 233.651C101.532 239.817 103.44 248.26 104.341 256.917C104.513 258.528 102.84 260.333 102.025 262.051C100.595 261.385 99.2551 260.54 98.0362 259.538C91.2657 252.546 86.0989 244.159 82.896 234.962C82.0168 236.809 81.2877 238.485 80.4513 240.118C78.1666 244.987 74.1412 248.82 69.1712 250.859C64.4104 252.771 61.258 250.709 62.3946 246.154C63.7783 240.55 65.7628 235.112 68.3134 229.935C69.2772 227.877 70.7359 226.091 72.5588 224.738C74.3816 223.384 76.5115 222.505 78.7571 222.18C82.0168 221.772 81.6951 220.869 80.4298 218.7C79.201 216.729 78.2009 214.625 77.449 212.427C75.771 207.27 74.3961 202.019 73.3315 196.702C72.7833 192.362 72.504 187.993 72.4952 183.619C70.6987 185.578 69.1369 187.741 67.8416 190.064C62.0943 198.399 56.4757 199.344 49.5704 197.926C45.7532 197.131 45.2814 195.456 47.4259 192.319C53.0874 184.435 59.7568 177.883 69.9003 176.358C71.4229 176.121 72.0448 175.885 72.2593 174.102C72.6338 170.276 73.7928 166.569 75.6637 163.213C77.5345 159.856 80.077 156.923 83.1319 154.596C89.8013 149.44 96.8353 144.714 103.891 140.009C111.243 135.411 117.895 129.775 123.642 123.275C120.536 123.095 117.42 123.334 114.377 123.984C106.185 125.938 98.1435 128.581 89.8657 130.085C87.6634 130.303 85.5825 131.199 83.9084 132.649C82.2344 134.099 81.0493 136.032 80.5156 138.183C78.8974 143.045 76.8222 147.742 74.318 152.212C72.8575 154.643 70.9306 156.761 68.6485 158.442C66.3664 160.124 63.7743 161.335 61.0221 162.007C57.3335 163.039 55.575 161.385 56.154 157.711C56.3504 156.736 56.6302 155.78 56.9904 154.854C60.1166 145.965 65.748 138.175 73.2029 132.426L67.9703 131.352C61.8155 130.063 56.0468 128.022 52.4869 122.437C51.9549 121.686 51.5896 120.83 51.4157 119.925C51.2419 119.021 51.2634 118.09 51.479 117.195C52.1095 116.488 52.8881 115.928 53.7592 115.557C54.6303 115.186 55.5725 115.011 56.5186 115.047C61.0032 115.103 65.4319 116.051 69.5477 117.836C73.6635 119.621 77.3844 122.207 80.4942 125.444C81.3829 126.519 82.5754 127.299 83.915 127.683C85.2546 128.066 86.6786 128.035 88 127.593C95.9561 125.444 103.912 123.296 111.933 121.341C116.072 120.353 120.21 119.043 124.628 120.654C125.323 120.748 126.031 120.67 126.689 120.426C127.347 120.183 127.935 119.782 128.402 119.257C133.828 111.739 139.79 104.456 144.143 96.3356C152.204 81.6869 155.396 64.8468 153.257 48.2579C152.528 42.3932 148.968 32.6402 145.923 29.3319C145.537 31.7164 145.173 34.3372 144.679 36.9366C143.678 40.7409 144.145 44.7833 145.987 48.2579C148.441 52.6595 149.375 57.749 148.647 62.7371C148.025 67.2914 146.502 71.4804 142.449 74.1442C138.675 76.5503 136.015 75.4332 136.359 71.0938C136.793 65.8232 137.559 60.5853 138.653 55.4115C139.254 52.2751 140.412 49.2461 141.312 46.1741L140.305 45.7659C139.49 47.3127 138.61 48.8164 137.86 50.3847C133.807 58.8058 127.48 60.2236 119.396 60.2022C117.423 60.2022 115.578 59.4288 117.251 56.765C122.033 48.6661 127.673 41.7272 137.988 40.7391C138.665 40.6299 139.308 40.3683 139.869 39.9738C140.43 39.5793 140.894 39.0624 141.227 38.4619C144.765 28.9667 142.621 21.5767 134.793 15.2608C133.51 14.2036 132.132 13.2687 130.676 12.4681C106.743 -0.421326 83.4965 1.34021 61.2794 16.3994C53.3871 21.4726 47.2993 28.9171 43.8875 37.6671C42.1933 42.1999 42.0646 46.6682 45.0884 50.4276C49.12 55.433 53.6664 60.0947 58.1484 64.692C58.9419 65.5298 60.8505 65.5083 62.223 65.4868C68.5493 65.4868 74.8756 64.8209 81.159 65.0572C87.4424 65.2935 93.3612 67.3558 96.4064 73.6502C97.3286 75.5621 99.0871 78.2689 96.7067 80.0949C94.8805 80.9594 92.812 81.1643 90.8521 80.6749C83.9683 79.6223 77.1488 78.2903 70.5222 77.0873C71.7017 80.9757 72.8812 84.3914 73.7176 87.8286C73.7565 88.3795 73.664 88.9318 73.4478 89.4398C73.2315 89.9478 72.8976 90.397 72.4737 90.7502C71.9162 91.1154 70.3292 90.5569 69.6001 89.9124C63.1666 84.327 56.8832 78.6341 56.347 69.2247C56.2228 68.2297 55.7787 67.3023 55.0818 66.5824C50.4711 61.6415 45.7746 56.7865 41.0138 51.7596C41.743 60.3526 42.9439 68.9455 47.0184 76.7007C49.8706 82.1357 53.0445 87.4419 58.2771 91.0295C67.9917 97.7749 78.8858 99.7513 90.4447 98.9135C90.8869 98.8188 91.3052 98.6347 91.6739 98.3724C92.0427 98.1102 92.3541 97.7753 92.5892 97.3883C95.9561 91.6954 101.425 89.0316 107.279 86.9693C113.134 84.907 118.538 83.1669 124.221 81.4268C125.595 81.1927 126.994 81.1421 128.381 81.2764C128.469 82.834 128.295 84.3953 127.866 85.8952C124.277 93.1277 118.003 98.6646 110.389 101.32C109.767 101.534 109.123 101.663 108.523 101.9C107.922 102.136 107.687 102.351 107.965 102.2C111.654 104.52 115.493 106.733 119.095 109.29C119.525 109.74 119.843 110.287 120.022 110.884C120.201 111.482 120.236 112.113 120.125 112.727C119.975 113.436 118.345 114.209 117.315 114.252C113.519 114.714 109.681 114.714 105.885 114.252C100.202 113.113 94.6265 111.244 92.3319 104.8C92.0501 104.369 91.6775 104.005 91.2403 103.734C90.8031 103.463 90.3119 103.292 89.8014 103.232C86.8419 102.845 83.8396 102.759 80.8588 102.501C69.9003 101.491 59.9069 98.2046 51.8007 90.3205C52.0151 91.6095 52.2082 92.877 52.444 94.1659C53.2652 97.6519 53.2846 101.279 52.5007 104.774C51.7168 108.269 50.1502 111.539 47.9191 114.338C46.0105 116.68 44.4021 116.594 43.6301 114.08C40.1853 104.48 40.2537 93.967 43.8231 84.4129C44.3139 83.3615 44.5521 82.2096 44.5185 81.0494C44.485 79.8892 44.1808 78.7531 43.6301 77.7318C39.0838 67.4203 36.5532 56.8079 38.4619 45.3578C39.8386 37.2301 43.1731 29.5613 48.1765 23.016C43.3513 26.668 38.7192 30.406 34.3444 34.4447C31.7067 36.8937 27.9109 39.5361 27.4605 42.5651C27.0102 45.2504 30.1841 48.6446 31.9211 51.6307C36.7891 59.9659 37.025 68.2581 31.6852 76.4429C30.3985 78.4408 29.0046 81.5772 26.2167 80.3741C24.7799 79.7512 23.9435 76.5717 23.6862 74.4665C22.8927 67.8069 22.4853 61.1044 21.9063 54.0152C20.5679 57.4783 18.1065 60.3904 14.9174 62.2839C11.7283 64.1773 7.99651 64.9421 4.32131 64.4556C2.94883 64.3482 0.61131 63.8971 0.461195 63.2097C0.313239 61.6904 0.708423 60.1679 1.57635 58.9132C6.89472 51.0291 14.4434 45.6585 22.1636 40.3309C26.4526 37.3878 30.2913 33.8862 34.3229 30.6853C30.5701 30.2127 27.4391 30.5778 24.3296 30.4489C21.2539 30.4124 18.2165 29.7608 15.3956 28.5323C12.5748 27.3039 10.0273 25.5234 7.90264 23.2953C7.50886 22.8145 7.21963 22.2565 7.05345 21.6573C6.88728 21.058 6.84783 20.4305 6.93761 19.8151C7.08773 19.1062 8.63177 18.4402 9.66113 18.2039C11.78 17.7461 13.9308 17.4517 16.0947 17.3232C22.7212 16.9365 29.7551 15.9698 35.3952 20.2018C40.0917 23.7679 43.2655 23.3597 47.6403 19.8795C51.4576 16.872 56.4757 15.5831 60.5074 12.7259C72.4782 4.26147 86.8394 -0.142487 101.489 0.158661C119.052 0.652771 134.429 7.95679 148.668 17.7313C151.205 19.6083 153.626 21.6387 155.917 23.8109C157.696 25.3576 158.983 25.9591 161.235 23.8109C163.875 21.6758 166.885 20.0447 170.113 18.9988C178.155 16.2061 185.704 20.3952 193.467 21.4048C195.847 21.7056 195.59 23.5316 193.703 24.9065ZM167.969 73.4353C170.821 76.5933 174.102 79.386 177.79 82.8876C178.477 73.1561 170.37 62.9089 161.514 61.5126C160.895 61.5319 160.285 61.6629 159.712 61.8993C159.869 62.5152 160.107 63.1075 160.42 63.6608C162.993 66.9691 165.309 70.3848 168.076 73.4353H167.969ZM165.202 98.978C167.668 87.9145 164.173 79.3645 158.769 70.4923C156.796 81.0831 159.862 89.7405 165.309 98.978H165.202ZM127.566 163.425C127.686 164.347 128.136 165.194 128.831 165.81C129.089 166.003 130.333 165.359 130.976 164.843C136.552 159.816 138.76 153.071 140.111 146.003C140.776 142.523 140.991 138.957 141.527 134.446C131.126 142.179 126.858 151.631 127.673 163.404L127.566 163.425ZM99.6875 184.908C101.489 193.716 106.55 200.311 113.991 205.896C114.255 203.602 114.055 201.279 113.403 199.064C112.751 196.85 111.66 194.79 110.196 193.007C107.708 189.72 104.791 186.755 102.004 183.726C101.389 183.235 100.702 182.844 99.9663 182.566C99.7967 183.357 99.7605 184.17 99.8591 184.972L99.6875 184.908ZM91.71 182.931C87.8948 186.658 85.6013 191.674 85.2764 197.002C87.3295 195.565 89.2079 193.892 90.8736 192.018C92.3342 189.623 93.5074 187.063 94.3691 184.392C94.767 183.119 95.0752 181.82 95.2913 180.504C94.0757 181.22 92.9335 182.055 91.8815 182.996L91.71 182.931ZM144.744 222.889C147.523 221.199 150.105 219.203 152.442 216.938C153.279 216.165 153.386 214.618 153.836 213.415L150.105 213.157C142.299 214.64 133.871 215.477 126.515 220.225C125.654 220.693 124.872 221.294 124.199 222.008C123.963 222.309 124.671 223.855 124.843 223.855C131.705 223.318 138.567 226.455 144.915 222.953L144.744 222.889ZM124.757 238.743C128.853 244.35 134.75 247.765 140.798 250.902C141.538 251.148 142.313 251.272 143.092 251.267C143.335 250.401 143.437 249.502 143.393 248.603C142.372 243.004 139.19 238.033 134.536 234.769C131.276 232.62 127.652 230.837 124.371 228.646C121.09 226.455 121.111 228.109 120.789 230.988C121.939 233.71 123.324 236.327 124.928 238.807L124.757 238.743ZM86.1557 231.74C87.6573 236.259 89.426 240.685 91.4526 244.994C93.6009 248.739 96.0086 252.328 98.6581 255.735C99.2246 256.308 99.8669 256.799 100.567 257.196L101.489 254.876C100.804 248.678 98.3378 242.813 94.3906 237.991C92.2461 235.649 90.2302 233.286 88.1072 230.966C87.7422 230.669 87.3381 230.423 86.9062 230.236C86.6489 230.73 86.1342 231.396 86.2844 231.804L86.1557 231.74ZM80.7515 225.144C77.9257 225.887 75.2732 227.179 72.9455 228.947C68.1418 233.437 67.1553 239.903 65.4612 245.875C65.1181 248.26 66.5978 248.861 68.0561 247.873C71.0678 246.204 73.7206 243.955 75.8621 241.256C78.3281 236.78 80.4779 232.135 82.2956 227.357C83.2606 225.66 82.5744 224.607 80.8802 225.209L80.7515 225.144ZM77.2774 201.17C77.2774 200.891 77.1273 200.611 77.0415 200.332C77.0415 200.461 76.87 200.611 76.8914 200.654C77.0079 200.835 77.1369 201.007 77.2774 201.17ZM68.0132 179.688C62.5156 181.577 57.6018 184.864 53.7522 189.226C53.19 189.833 52.6806 190.487 52.2296 191.181C51.479 192.341 50.8357 193.544 50.0851 194.725L55.1675 196.465C58.151 194.809 60.9478 192.835 63.5097 190.579C65.7821 187.743 67.7515 184.675 69.3856 181.428C69.6184 180.896 69.7633 180.33 69.8145 179.752C69.2242 179.612 68.612 179.59 68.0132 179.688ZM57.5051 118.334C56.5473 118.392 55.5945 118.514 54.6529 118.699C55.1032 119.73 55.2748 121.234 56.0468 121.706C59.5812 124.03 63.3384 125.995 67.2626 127.571C70.9083 128.437 74.6278 128.955 78.3711 129.118L78.5641 127.893C72.2807 123.167 65.9759 118.441 57.5051 118.377V118.334ZM72.967 136.723C66.8486 142.086 62.248 148.97 59.6281 156.68C59.5057 157.844 59.5057 159.017 59.6281 160.181C62.7001 158.373 65.6777 156.409 68.5493 154.295C73.2243 150.428 74.9828 144.779 76.9772 139.365C77.6849 137.41 78.1567 135.391 78.7357 133.393C76.7122 134.318 74.7806 135.433 72.967 136.723ZM146.695 134.682C150.903 142.621 157.396 149.11 165.331 153.307C167.175 154.252 169.127 154.94 171.035 155.756C165.267 146.862 160.206 137.496 150.877 131.846C150.615 131.642 150.316 131.489 149.998 131.395C148.282 131.137 146.566 130.944 144.851 130.729C145.393 132.107 146.009 133.455 146.695 134.768V134.682ZM134.879 44.4555C132.051 45.3096 129.424 46.7232 127.151 48.6124C124.878 50.5016 123.007 52.8282 121.647 55.4546C121.519 55.6694 122.441 56.8724 122.955 56.9153C124.761 57.1229 126.589 56.858 128.262 56.1463C129.934 55.4347 131.394 54.3007 132.498 52.8551C134.147 50.423 135.63 47.8824 136.938 45.2504C135.994 44.8637 135.329 44.3481 134.879 44.3481V44.4555ZM77.2345 74.8317C81.8667 75.8843 86.5846 76.6147 91.2811 77.4526C92.0631 77.5561 92.8512 77.6063 93.64 77.603C93.6567 76.6788 93.4965 75.76 93.1682 74.8961C91.8148 72.8139 89.9405 71.1232 87.7318 69.9925C85.5232 68.8618 83.0574 68.3304 80.58 68.4514C74.4681 68.2796 68.3563 68.4514 62.1801 68.4514C66.1474 73.1776 71.8733 73.6287 77.2345 74.8317ZM68.5064 85.9167L69.6644 85.1003C68.2276 79.8586 65.74 75.4117 60.6575 72.8983L59.6067 73.6716L68.5064 85.9167ZM96.7067 106.282C100.76 110.471 106.078 111.438 112.19 112.125L115.021 110.922C114.227 110.127 113.562 108.903 112.597 108.602C107.601 107.077 102.54 105.745 97.4787 104.413C96.99 104.382 96.5002 104.455 96.0419 104.628C96.2563 105.186 96.3207 105.895 96.7067 106.282ZM100.588 99.8373C110.153 98.6557 119.138 95.0252 124.349 84.9499C115.128 87.8501 106.228 89.2464 98.894 94.7889C97.464 96.0979 96.1575 97.5361 94.9911 99.0854C96.8155 99.593 98.6953 99.8744 100.588 99.9232V99.8373ZM45.839 111.545C50.8142 104.37 50.8571 96.8512 46.2464 85.8952C43.8351 94.2859 43.6944 103.168 45.839 111.631V111.545ZM15.7086 48.6446C11.8485 51.9958 8.22432 55.6478 4.55721 59.2354C4.10415 59.8932 3.7568 60.6181 3.52784 61.3837L5.415 61.8993C12.1273 61.0615 16.931 58.0754 19.3972 51.9314C20.3622 49.5468 21.1771 47.0978 22.0564 44.6703C19.8277 45.8051 17.7035 47.135 15.7086 48.6446ZM26.7314 74.1442C26.9403 74.818 27.191 75.4781 27.482 76.1207C28.0351 75.7824 28.5339 75.3623 28.9617 74.8746C32.2857 69.3966 33.8083 63.6394 31.1062 57.4524C29.8195 54.5952 28.2969 51.8669 26.5169 48.3438C24.3535 56.8441 24.4126 65.7594 26.6885 74.2302L26.7314 74.1442ZM36.253 23.8538C31.192 20.0085 25.2731 19.8581 19.3114 20.3092C16.6737 20.3092 14.0359 20.3092 11.3982 20.3092C10.9345 20.3627 10.4801 20.4783 10.0471 20.653C10.3138 21.1476 10.6377 21.6091 11.0122 22.0278C14.4051 25.227 18.9209 26.9562 23.579 26.8399C27.6964 26.8399 31.7924 26.4962 35.8885 26.2598C36.5337 26.1303 37.1604 25.9211 37.7542 25.6369C37.3093 25.0112 36.7909 24.4414 36.2101 23.9398L36.253 23.8538ZM142.235 52.5759C141.334 57.882 140.412 63.1882 139.597 68.5159C139.603 69.4363 139.755 70.3499 140.047 71.2227C141.014 70.7442 141.897 70.1131 142.663 69.3537C146.459 63.9831 145.73 58.3332 143.907 52.6618L142.235 52.5759ZM175.389 49.2676C176.005 49.107 176.572 48.7971 177.04 48.3653C176.246 45.9378 175.925 42.9302 174.295 41.2331C170.915 38.014 167.334 35.0146 163.572 32.2535C165.224 39.5145 170.606 44.1977 175.431 49.2676H175.389ZM162.886 31.8024L163.251 31.9742V31.8239C163.251 31.8239 163.015 31.8024 162.929 31.8024H162.886ZM164.173 25.8517C172.472 25.551 180.621 29.5897 188.62 24.4983C179.099 19.8152 169.899 20.2663 164.216 25.8517H164.173Z" fill="black" fill-opacity="0.1"/>
</svg>
