<svg width="133" height="67" viewBox="0 0 133 67" fill="none" xmlns="http://www.w3.org/2000/svg">
<g clip-path="url(#clip0_505_823)">
<path d="M131.079 66.5862C122.063 64.885 113.095 63.0879 104.007 61.7941C95.0548 60.5419 85.9965 60.2447 76.9824 60.9075C59.8065 62.2013 42.7971 66.4903 25.4546 65.4839C16.7066 65.1601 8.1338 62.9198 0.333083 58.9188C0.213929 58.8383 0.122667 58.7223 0.0720159 58.5871C0.0213649 58.4519 0.0138063 58.3041 0.0504539 58.1643C0.0871015 58.0246 0.166109 57.8999 0.276456 57.8075C0.386802 57.7151 0.522999 57.6597 0.666096 57.6489L25.6925 59.5657C34.0425 60.1887 42.345 60.572 50.7426 61.2909C51.9797 61.2909 52.0035 63.3275 50.7426 63.2317C42.3926 62.6326 34.0901 61.6982 25.6925 61.0273L0.666096 58.9907C0.666096 58.5833 0.880235 58.176 0.999182 57.7448C15.6534 65.7955 33.0196 64.7412 48.9347 62.0576C57.713 60.5721 66.4198 58.799 75.2933 57.9124C84.0895 57.105 92.9483 57.306 101.699 58.5114C111.783 59.9349 121.776 61.9511 131.626 64.5495C132.887 64.861 132.34 66.7539 131.079 66.5143V66.5862Z" fill="black" fill-opacity="0.1"/>
<path d="M129.343 66.2507C116.068 60.8596 100.796 63.3036 88.4726 55.1091C82.6527 50.8993 77.3782 45.9731 72.7716 40.4453C67.8 34.8748 63.1532 29.0186 58.8549 22.9062C54.0676 15.9749 49.6753 8.77514 45.6993 1.34176C45.6051 1.17019 45.5683 0.972527 45.5945 0.778214C45.6207 0.583893 45.7086 0.403297 45.8449 0.26329C45.9812 0.123283 46.1588 0.0314026 46.3512 0.0012207C46.5436 -0.0289536 46.7405 0.00422668 46.9126 0.0958405C53.4309 3.97744 60.1871 7.85904 64.2313 14.4721C68.2755 21.0852 69.2508 29.2318 73.2475 35.8928C73.3547 36.0739 73.3861 36.2905 73.3348 36.495C73.2835 36.6994 73.1536 36.875 72.9738 36.983C72.794 37.091 72.579 37.1227 72.376 37.071C72.173 37.0194 71.9987 36.8886 71.8914 36.7075C68.0614 30.31 66.2772 23.0021 62.6136 16.5567C58.9501 10.1113 52.408 5.5109 45.9611 1.58138C46.3655 1.17405 46.7937 0.766678 47.1981 0.335388C50.7122 6.71829 54.6214 12.8723 58.9025 18.761C63.1913 24.8296 67.8219 30.6456 72.7716 36.1803C77.3794 41.6405 82.4847 46.6542 88.0206 51.1557C93.6834 55.3201 100.247 58.071 107.171 59.1824C114.807 60.6679 122.753 61.3868 129.795 64.909C130.485 65.2444 130.009 66.4424 129.295 66.1549L129.343 66.2507Z" fill="black" fill-opacity="0.1"/>
<path d="M95.3953 59.3741C90.8507 54.753 85.9594 50.4914 80.7649 46.6271C75.8671 43.1734 70.4321 40.5659 64.6833 38.9118C54.0256 35.8209 42.8209 35.1979 32.1394 32.2029C26.27 30.6855 20.7563 28.0146 15.9151 24.3438L17.2235 23.05C28.6061 34.4368 43.7209 41.252 59.7351 42.2183C64.2772 42.5031 68.8367 42.2457 73.3188 41.4516C73.4765 41.4043 73.6425 41.3919 73.8054 41.4153C73.9684 41.4386 74.1244 41.4971 74.2627 41.5869C74.4011 41.6766 74.5185 41.7954 74.6071 41.9351C74.6956 42.0749 74.7532 42.2321 74.7757 42.3963C74.7983 42.5605 74.7853 42.7277 74.7377 42.8864C74.6901 43.0451 74.6091 43.1915 74.5001 43.3157C74.3911 43.4399 74.2567 43.5388 74.1062 43.6058C73.9557 43.6728 73.7926 43.7063 73.6281 43.7039C57.2582 45.8967 40.6463 42.1786 26.7392 33.2092C22.8378 30.6646 19.2101 27.7175 15.9151 24.4157C15.0587 23.5531 16.3195 22.403 17.2235 23.1218C26.1921 30.1423 37.7061 31.9872 48.6255 33.7603C59.5448 35.5334 70.9398 37.6659 80.408 44.255C86.137 48.5047 91.479 53.2596 96.3707 58.4636C97.013 59.0865 96.0376 60.0689 95.3953 59.4459V59.3741Z" fill="black" fill-opacity="0.1"/>
<path d="M130.532 66.3464C125.602 64.9947 121.04 62.5373 117.186 59.1583C113.078 55.7628 109.266 52.0193 105.791 47.9687C97.8456 38.9835 89.6383 30.0703 82.5253 20.3902C78.666 15.4319 75.5113 9.95619 73.1523 4.12103C72.8906 3.45013 73.9611 3.16262 74.199 3.83351C76.2999 9.00611 79.128 13.8477 82.5966 18.2098C85.9985 22.6185 89.9476 26.572 93.6111 30.7651L105.506 44.4465C108.805 48.3367 112.333 52.0252 116.068 55.4923C118.229 57.4796 120.561 59.2678 123.039 60.8355C125.554 62.3024 128.188 63.5528 130.913 64.5733C131.113 64.6535 131.278 64.8051 131.374 64.9992C131.471 65.1934 131.494 65.4166 131.438 65.6265C131.383 65.8364 131.252 66.0184 131.072 66.1378C130.892 66.2573 130.674 66.3059 130.461 66.2746L130.532 66.3464Z" fill="black" fill-opacity="0.1"/>
</g>
<defs>
<clipPath id="clip0_505_823">
<rect width="132.34" height="66.6102" fill="white" transform="matrix(1 0 0 -1 0 66.6101)"/>
</clipPath>
</defs>
</svg>
